# xmcd CD database file
#
# Track frame offsets:
#	150
#	19132
#	36825
#	54702
#	64832
#	81065
#	100465
#	120855
#	137030
#	149467
#	163622
#	177177
#	191902
#
# Disc length: 2794 seconds
#
# Revision: 3
# Processed by: cddbd v1.5.2PL0 Copyright (c) Steve Scherf et al.
# Submitted via: CDex 1.70beta2
#
DISCID=b60ae80d
DTITLE=Eliana Printes - Pra Lua Tocar
DYEAR=2000
DGENRE=Pop
TTITLE0=É onde o seu lugar
TTITLE1=Crepúsculo de uma deusa
TTITLE2=Quase não dá para ser feliz
TTITLE3=Só vou gostar de quem gosta de mim
TTITLE4=Coca-colas e iguarias
TTITLE5=Pra Lua tocar
TTITLE6=Da laia do lama
TTITLE7=Insensatez
TTITLE8=O céu hoje à noite
TTITLE9=Sinal dos tempos
TTITLE10=As musas
TTITLE11=Reprocissão
TTITLE12=Cantos das três raças
EXTD=YEAR: 2000
EXTT0=
EXTT1=
EXTT2=
EXTT3=
EXTT4=
EXTT5=
EXTT6=
EXTT7=
EXTT8=
EXTT9=
EXTT10=
EXTT11=
EXTT12=
PLAYORDER=
